Coordinates
version=1
nRows=19
nColumns=24
inDegrees=yes

Units are S.I. units (second, meters, Newtons, ...)
Angles are in degrees.

endheader
time	pelvis_tilt	pelvis_list	pelvis_rotation	pelvis_tx	pelvis_ty	pelvis_tz	hip_flexion_r	hip_adduction_r	hip_rotation_r	knee_angle_r	ankle_angle_r	subtalar_angle_r	mtp_angle_r	hip_flexion_l	hip_adduction_l	hip_rotation_l	knee_angle_l	ankle_angle_l	subtalar_angle_l	mtp_angle_l	lumbar_extension	lumbar_bending	lumbar_rotation
      3.79000000	     51.49095945	    -14.39578145	     -1.56853718	      0.43281525	      1.02055591	     -0.34924762	     26.87690860	      0.29078787	      5.88595735	    -55.69326023	      7.32006143	     45.27204892	      0.00000000	     21.37566762	    -26.20221002	      9.79383975	    -67.54286429	     25.05920129	     30.68293071	      0.00000000	      0.00000000	      0.00000000	      0.00000000
      3.80000000	     51.46958361	    -14.38921842	     -1.58605529	      0.43270539	      1.02049349	     -0.34926458	     26.79008143	      0.27111389	      5.80437328	    -55.55868651	      7.44075526	     45.29106116	      0.00000000	     21.37911906	    -26.19330291	      9.77817205	    -67.53188889	     25.05153747	     30.66448244	      0.00000000	      0.00000000	      0.00000000	      0.00000000
      3.81000000	     51.45985824	    -14.38527301	     -1.59661980	      0.43265417	      1.02051708	     -0.34931904	     26.71088390	      0.25814048	      5.72928339	    -55.45009222	      7.56216365	     45.31077988	      0.00000000	     21.37417626	    -26.18708567	      9.76519984	    -67.52374671	     25.04481525	     30.64760743	      0.00000000	      0.00000000	      0.00000000	      0.00000000
      3.82000000	     51.46379861	    -14.38345812	     -1.59664269	      0.43266337	      1.02062980	     -0.34940365	     26.65546731	      0.25585093	      5.66943371	    -55.40179647	      7.66634093	     45.32399656	      0.00000000	     21.36029009	    -26.18307819	      9.75754105	    -67.52168463	     25.03932761	     30.63463888	      0.00000000	      0.00000000	      0.00000000	      0.00000000
      3.83000000	     51.47638638	    -14.38231203	     -1.58937225	      0.43268829	      1.02072708	     -0.34946532	     26.62742285	      0.26296929	      5.62592989	    -55.42065858	      7.74189051	     45.32595400	      0.00000000	     21.34186670	    -26.18091035	      9.75572971	    -67.52616193	     25.03507560	     30.62685922	      0.00000000	      0.00000000	      0.00000000	      0.00000000
      3.84000000	     51.49083375	    -14.38025493	     -1.58077953	      0.43270522	      1.02075342	     -0.34947987	     26.62254290	      0.27546310	      5.59467786	    -55.48855983	      7.78588412	     45.31539807	      0.00000000	     21.32588829	    -26.18025710	      9.75836121	    -67.53509300	     25.03194017	     30.62428030	      0.00000000	      0.00000000	      0.00000000	      0.00000000
      3.85000000	     51.50148469	    -14.37686398	     -1.57501596	      0.43271804	      1.02072695	     -0.34946423	     26.63334535	      0.28917219	      5.57019758	    -55.57529251	      7.80292367	     45.29455530	      0.00000000	     21.31787853	    -26.18051935	      9.76296477	    -67.54524123	     25.02977630	     30.62579615	      0.00000000	      0.00000000	      0.00000000	      0.00000000
      3.86000000	     51.50485000	    -14.37306254	     -1.57286272	      0.43273390	      1.02068528	     -0.34944659	     26.65151421	      0.30136959	      5.54821127	    -55.65353118	      7.80225137	     45.26808126	      0.00000000	     21.31938593	    -26.18093179	      9.76732450	    -67.55359256	     25.02845772	     30.62960052	      0.00000000	      0.00000000	      0.00000000	      0.00000000
      3.87000000	     51.50048756	    -14.37014693	     -1.57292486	      0.43275028	      1.02065423	     -0.34944362	     26.66958611	      0.31114226	      5.52637224	    -55.70841891	      7.79427813	     45.24137464	      0.00000000	     21.32812721	    -26.18109203	      9.77049801	    -67.55815490	     25.02788735	     30.63371425	      0.00000000	      0.00000000	      0.00000000	      0.00000000
      3.88000000	     51.49122240	    -14.36886644	     -1.57342073	      0.43276132	      1.02064481	     -0.34945613	     26.68243482	      0.31887534	      5.50385613	    -55.73912472	      7.78769346	     45.21883950	      0.00000000	     21.33974958	    -26.18126628	      9.77282956	    -67.55827233	     25.02796708	     30.63647692	      0.00000000	      0.00000000	      0.00000000	      0.00000000
      3.89000000	     51.48173054	    -14.36926635	     -1.57314809	      0.43276665	      1.02065444	     -0.34947520	     26.68804756	      0.32532569	      5.48075757	    -55.75427247	      7.78779861	     45.20263302	      0.00000000	     21.34978927	    -26.18208948	      9.77511734	    -67.55459063	     25.02851558	     30.63688222	      0.00000000	      0.00000000	      0.00000000	      0.00000000
      3.90000000	     51.47611148	    -14.37091361	     -1.57166553	      0.43277069	      1.02066941	     -0.34949168	     26.68726909	      0.33084002	      5.45773837	    -55.76512086	      7.79617229	     45.19221509	      0.00000000	     21.35515159	    -26.18392728	      9.77776758	    -67.54863322	     25.02916598	     30.63468530	      0.00000000	      0.00000000	      0.00000000	      0.00000000
      3.91000000	     51.47600148	    -14.37303357	     -1.56915935	      0.43277636	      1.02067638	     -0.34950234	     26.68277494	      0.33500447	      5.43588352	    -55.77999932	      7.81138695	     45.18473239	      0.00000000	     21.35496248	    -26.18639714	      9.78053341	    -67.54202743	     25.02931306	     30.63029287	      0.00000000	      0.00000000	      0.00000000	      0.00000000
      3.92000000	     51.48016140	    -14.37452144	     -1.56619999	      0.43278384	      1.02067533	     -0.34950945	     26.67779506	      0.33673112	      5.41655422	    -55.80183609	      7.83029706	     45.17602031	      0.00000000	     21.35065955	    -26.18830939	      9.78278610	    -67.53569522	     25.02817387	     30.62451435	      0.00000000	      0.00000000	      0.00000000	      0.00000000
      3.93000000	     51.48542744	    -14.37398795	     -1.56347763	      0.43279463	      1.02067550	     -0.34951616	     26.67504992	      0.33466949	      5.40111256	    -55.82873260	      7.84941295	     45.16186423	      0.00000000	     21.34523873	    -26.18802157	      9.78395115	    -67.52943178	     25.02497830	     30.61827377	      0.00000000	      0.00000000	      0.00000000	      0.00000000
      3.94000000	     51.48827951	    -14.37003942	     -1.56157604	      0.43280999	      1.02068149	     -0.34952318	     26.67614718	      0.32776828	      5.39058145	    -55.85635218	      7.86598795	     45.13915418	      0.00000000	     21.34192732	    -26.18404437	      9.78379110	    -67.52208881	     25.01924015	     30.61237218	      0.00000000	      0.00000000	      0.00000000	      0.00000000
      3.95000000	     51.48624668	    -14.36189462	     -1.56075461	      0.43282387	      1.02069070	     -0.34952888	     26.68143372	      0.31579264	      5.38540790	    -55.88063768	      7.87861556	     45.10666115	      0.00000000	     21.34287764	    -26.17563206	      9.78237589	    -67.51222631	     25.01102315	     30.60735655	      0.00000000	      0.00000000	      0.00000000	      0.00000000
      3.96000000	     51.47875898	    -14.34998528	     -1.56084249	      0.43282472	      1.02070054	     -0.34953118	     26.69012388	      0.29959354	      5.38541546	    -55.89971705	      7.88731225	     45.06529449	      0.00000000	     21.34843470	    -26.16318385	      9.77989585	    -67.49890566	     25.00108664	     30.60350403	      0.00000000	      0.00000000	      0.00000000	      0.00000000
      3.97000000	     51.46733452	    -14.33603673	     -1.56140508	      0.43280927	      1.02071046	     -0.34952882	     26.70055113	      0.28098482	      5.38991879	    -55.91445653	      7.89319854	     45.01783134	      0.00000000	     21.35716103	    -26.14836430	      9.77658892	    -67.48231274	     24.99080360	     30.60089515	      0.00000000	      0.00000000	      0.00000000	      0.00000000
